<svg xmlns="http://www.w3.org/2000/svg" version="1.1" xmlns:xlink="http://www.w3.org/1999/xlink" xmlns:svgjs="http://svgjs.dev/svgjs" width="1500" height="1500" viewBox="0 0 1500 1500"><rect width="1500" height="1500" fill="#ffffff"></rect><g transform="matrix(0.6666666666666666,0,0,0.6666666666666666,250.16125253950145,270.0556005398111)"><svg viewBox="0 0 257 247" data-background-color="#004051" preserveAspectRatio="xMidYMid meet" height="1441" width="1500" xmlns="http://www.w3.org/2000/svg" xmlns:xlink="http://www.w3.org/1999/xlink"><g id="tight-bounds" transform="matrix(1,0,0,1,-0.041441902651882856,-0.09999999999999432)"><svg viewBox="0 0 257.08288380530377 247.2" height="247.2" width="257.08288380530377"><g><svg viewBox="0 0 395.52 380.3152607936588" height="247.2" width="257.08288380530377"><g transform="matrix(1,0,0,1,0,257.4458111533357)"><svg viewBox="0 0 395.52 122.86944964032311" height="122.86944964032311" width="395.52"><g id="textblocktransform"><svg viewBox="0 0 395.52 122.86944964032311" height="122.86944964032311" width="395.52" id="textblock"><g><svg viewBox="0 0 395.52 66.2699099930764" height="66.2699099930764" width="395.52"><g transform="matrix(1,0,0,1,0,0)"><svg width="395.52" viewBox="0.5 -35.85 216.63 36.300000000000004" height="66.2699099930764" data-palette-color="#32fd6b"><path d="M8.75-2.7L8.05-4.3Q9.05-3.25 10.23-2.55 11.4-1.85 13.15-1.85L13.15-1.85Q14.2-1.85 15.43-2.27 16.65-2.7 17.8-3.75 18.95-4.8 19.68-6.7 20.4-8.6 20.4-11.6L20.4-11.6Q20.4-14.8 19.45-16.68 18.5-18.55 17.2-19.38 15.9-20.2 14.8-20.2L14.8-20.2Q13.35-20.2 11.95-19.28 10.55-18.35 9.65-16.25 8.75-14.15 8.75-10.65L8.75-10.65 8.75-2.7ZM12.9 0.45L12.9 0.45Q10.65 0.45 8.8 0 6.95-0.45 5.55-1.23 4.15-2 3.15-2.95L3.15-2.95Q3.7-3.65 3.98-5 4.25-6.35 4.25-9.3L4.25-9.3 4.25-28.75Q4.25-29.95 4.03-30.73 3.8-31.5 3-31.9 2.2-32.3 0.5-32.3L0.5-32.3Q0.5-32.85 0.6-33.3 0.7-33.75 0.95-34.15L0.95-34.15Q1.7-34.15 3.08-34.4 4.45-34.65 5.75-35.05 7.05-35.45 7.65-35.85L7.65-35.85Q8.1-35.7 8.43-35.25 8.75-34.8 8.75-33.85L8.75-33.85 8.75-20.8Q8.75-19.9 8.65-19.28 8.55-18.65 8.45-18.1L8.45-18.1 8.25-13.65 7.3-15.95Q7.95-17.55 8.43-18.4 8.9-19.25 9.15-19.65L9.15-19.65Q9.6-20.4 10.58-21.28 11.55-22.15 12.95-22.75 14.35-23.35 16-23.35L16-23.35Q18.95-23.35 21.03-22.18 23.1-21 24.23-18.55 25.35-16.1 25.35-12.25L25.35-12.25Q25.35-8.75 23.8-5.88 22.25-3 19.45-1.28 16.65 0.45 12.9 0.45ZM39.95 0.45L39.95 0.45Q36.4 0.45 34.05-1.15 31.7-2.75 30.52-5.48 29.35-8.2 29.35-11.45L29.35-11.45Q29.35-14.65 30.6-17.35 31.85-20.05 34.17-21.7 36.5-23.35 39.7-23.35L39.7-23.35Q42.95-23.35 44.92-21.95 46.9-20.55 47.87-18.2 48.85-15.85 49.05-13L49.05-13Q48.85-12 48.3-11.3L48.3-11.3Q47.45-11.3 45.75-11.3 44.05-11.3 41.9-11.28 39.75-11.25 37.5-11.18 35.25-11.1 33.25-11L33.25-11 33.25-13.55 43.85-13.55Q43.85-16.85 42.65-18.9 41.45-20.95 39.25-20.95L39.25-20.95Q38.05-20.95 36.9-20.23 35.75-19.5 35-17.68 34.25-15.85 34.25-12.5L34.25-12.5Q34.25-10.05 34.87-7.73 35.5-5.4 37.07-3.88 38.65-2.35 41.55-2.35L41.55-2.35Q43.2-2.35 44.8-3.1 46.4-3.85 47.65-5.25L47.65-5.25Q48.05-5.05 48.42-4.58 48.8-4.1 48.85-3.7L48.85-3.7Q47.15-1.45 44.92-0.5 42.7 0.45 39.95 0.45ZM68.8-21.6L68.8-21.6Q68.75-20.4 68.72-19.05 68.7-17.7 68.9-16.4L68.9-16.4Q68.4-16.1 67.75-15.95 67.09-15.8 66.4-15.8L66.4-15.8Q66.3-17.2 65.57-18.45 64.84-19.7 63.65-20.5 62.45-21.3 60.8-21.3L60.8-21.3Q59.25-21.3 58.32-20.55 57.4-19.8 57.4-18.55L57.4-18.55Q57.4-17.7 57.77-17.05 58.15-16.4 59.42-15.68 60.7-14.95 63.34-13.9L63.34-13.9Q66.05-12.9 67.59-11.9 69.15-10.9 69.8-9.65 70.45-8.4 70.45-6.6L70.45-6.6Q70.45-4.5 69.25-2.9 68.05-1.3 65.97-0.43 63.9 0.45 61.3 0.45L61.3 0.45Q58.3 0.45 56.52-0.03 54.75-0.5 53.05-1.4L53.05-1.4Q53.15-2.2 53.17-3.35 53.2-4.5 53.2-5.65 53.2-6.8 53.09-7.6L53.09-7.6Q53.5-7.9 54.22-8.03 54.95-8.15 55.7-8.15L55.7-8.15Q56.09-5 57.65-3.45 59.2-1.9 61.8-1.9L61.8-1.9Q63.84-1.9 64.97-2.8 66.09-3.7 66.09-5.1L66.09-5.1Q66.09-6 65.67-6.65 65.25-7.3 64.09-7.95 62.95-8.6 60.7-9.5L60.7-9.5Q58-10.6 56.37-11.55 54.75-12.5 54.02-13.8 53.3-15.1 53.3-17.1L53.3-17.1Q53.3-18.7 54.09-19.88 54.9-21.05 56.17-21.83 57.45-22.6 58.9-22.98 60.34-23.35 61.59-23.35L61.59-23.35Q63.84-23.35 65.55-22.9 67.25-22.45 68.8-21.6ZM82.84 0.45L82.84 0.45Q79.89 0.45 78.47-1.07 77.04-2.6 77.04-6L77.04-6 77.04-19.55Q76.29-19.8 75.49-19.98 74.69-20.15 73.44-20.2L73.44-20.2Q73.44-20.85 73.54-21.33 73.64-21.8 73.89-22.4L73.89-22.4 77.04-22.4 77.04-29Q78.04-29.25 79.02-29.8 79.99-30.35 80.74-31L80.74-31Q81.24-30.8 81.39-30.4 81.54-30 81.54-28.4L81.54-28.4 81.54-22.4 88.04-22.4Q88.04-21.9 87.94-21.33 87.84-20.75 87.59-20.2L87.59-20.2Q85.79-20.15 84.29-19.98 82.79-19.8 81.54-19.55L81.54-19.55 81.54-7.05Q81.54-5.4 81.89-4.33 82.24-3.25 82.89-2.75 83.54-2.25 84.44-2.25L84.44-2.25Q85.49-2.25 86.27-2.55 87.04-2.85 87.74-3.45L87.74-3.45Q88.39-2.7 88.49-1.8L88.49-1.8Q87.69-0.85 86.07-0.2 84.44 0.45 82.84 0.45ZM110.04-11.35L110.04-7.35Q110.04-5.2 110.49-4.08 110.94-2.95 111.94-2.53 112.94-2.1 114.49-2L114.49-2Q114.64-1.6 114.69-1.07 114.74-0.55 114.74 0.15L114.74 0.15Q113.99 0.1 112.96 0.08 111.94 0.05 110.79 0.03 109.64 0 108.44 0L108.44 0Q106.69 0 104.76 0.03 102.84 0.05 101.84 0.15L101.84 0.15Q101.84-0.55 101.89-1.07 101.94-1.6 102.09-2L102.09-2Q103.44-2.1 104.19-2.48 104.94-2.85 105.24-3.78 105.54-4.7 105.54-6.35L105.54-6.35 105.54-11.35 110.04-11.35ZM109.19-15.35L110.04-14.65 110.04-10.7 105.54-10.7 105.54-16.25 110.04-21.15Q110.04-19.45 109.74-18.07 109.44-16.7 109.19-15.35L109.19-15.35ZM110.04-12.15L108.94-15.05Q109.49-16.45 109.79-17.35 110.09-18.25 110.44-18.85L110.44-18.85Q111.54-20.6 113.04-21.75 114.54-22.9 116.49-22.9L116.49-22.9Q118.39-22.9 119.94-21.7L119.94-21.7Q119.84-20.9 119.74-19.85 119.64-18.8 119.61-17.75 119.59-16.7 119.59-15.8L119.59-15.8Q119.14-15.65 118.36-15.5 117.59-15.35 116.74-15.35L116.74-15.35Q116.64-17.75 115.96-18.5 115.29-19.25 114.29-19.25L114.29-19.25Q113.44-19.25 112.44-18.28 111.44-17.3 110.74-15.7 110.04-14.1 110.04-12.15L110.04-12.15ZM110.04-21.15L105.54-10.7 105.54-16.25Q105.54-17.45 105.29-18.2 105.04-18.95 104.24-19.35 103.44-19.75 101.79-19.8L101.79-19.8Q101.79-20.35 101.89-20.8 101.99-21.25 102.24-21.65L102.24-21.65Q103.79-21.75 105.79-22.25 107.79-22.75 108.94-23.35L108.94-23.35Q109.39-23.2 109.71-22.73 110.04-22.25 110.04-21.15L110.04-21.15ZM133.54 0.45L133.54 0.45Q129.99 0.45 127.64-1.15 125.29-2.75 124.11-5.48 122.94-8.2 122.94-11.45L122.94-11.45Q122.94-14.65 124.19-17.35 125.44-20.05 127.76-21.7 130.09-23.35 133.29-23.35L133.29-23.35Q136.54-23.35 138.51-21.95 140.49-20.55 141.46-18.2 142.44-15.85 142.64-13L142.64-13Q142.44-12 141.89-11.3L141.89-11.3Q141.04-11.3 139.34-11.3 137.64-11.3 135.49-11.28 133.34-11.25 131.09-11.18 128.84-11.1 126.84-11L126.84-11 126.84-13.55 137.44-13.55Q137.44-16.85 136.24-18.9 135.04-20.95 132.84-20.95L132.84-20.95Q131.64-20.95 130.49-20.23 129.34-19.5 128.59-17.68 127.84-15.85 127.84-12.5L127.84-12.5Q127.84-10.05 128.46-7.73 129.09-5.4 130.66-3.88 132.24-2.35 135.14-2.35L135.14-2.35Q136.79-2.35 138.39-3.1 139.99-3.85 141.24-5.25L141.24-5.25Q141.64-5.05 142.01-4.58 142.39-4.1 142.44-3.7L142.44-3.7Q140.74-1.45 138.51-0.5 136.29 0.45 133.54 0.45ZM161.78 0.45L161.78 0.45Q161.23 0.2 160.91-0.45 160.58-1.1 160.58-2.5L160.58-2.5Q160.58-2.95 160.63-3.58 160.68-4.2 160.83-4.7L160.83-4.7 160.93-4.7Q160.78-3.9 160.26-2.98 159.73-2.05 158.88-1.35L158.88-1.35Q158.03-0.6 156.73-0.13 155.43 0.35 153.58 0.35L153.58 0.35Q150.43 0.35 148.78-1.07 147.13-2.5 147.13-4.95L147.13-4.95Q147.13-6.9 148.06-8.28 148.98-9.65 150.46-10.58 151.93-11.5 153.66-12.05 155.38-12.6 157.03-12.9 158.68-13.2 159.93-13.4L159.93-13.4Q159.93-15.45 159.86-16.6 159.78-17.75 159.56-18.43 159.33-19.1 158.88-19.6L158.88-19.6Q158.28-20.35 157.51-20.73 156.73-21.1 155.78-21.1L155.78-21.1Q154.13-21.1 153.18-20.08 152.23-19.05 151.83-17.7 151.43-16.35 151.38-15.3L151.38-15.3Q150.83-15.3 150.01-15.38 149.18-15.45 148.78-15.65L148.78-15.65Q148.88-16.9 148.83-18.45 148.78-20 148.53-21.1L148.53-21.1Q150.58-22.15 152.86-22.75 155.13-23.35 157.03-23.35L157.03-23.35Q158.88-23.35 160.21-22.83 161.53-22.3 162.33-21.45L162.33-21.45Q163.63-20.2 164.03-18.18 164.43-16.15 164.43-12.8L164.43-12.8 164.43-7.3Q164.43-5.9 164.66-5.08 164.88-4.25 165.53-3.88 166.18-3.5 167.53-3.4L167.53-3.4Q167.53-2.9 167.48-2.27 167.43-1.65 167.23-1.1L167.23-1.1Q165.98-1.05 164.46-0.63 162.93-0.2 161.78 0.45ZM154.98-2.4L154.98-2.4Q156.08-2.4 157.23-3.13 158.38-3.85 159.16-5.4 159.93-6.95 159.93-9.45L159.93-9.45 159.93-11.35Q158.68-11.2 157.28-10.93 155.88-10.65 154.68-10.1 153.48-9.55 152.73-8.58 151.98-7.6 151.98-5.95L151.98-5.95Q151.98-4.1 152.88-3.25 153.78-2.4 154.98-2.4ZM183.98-23.35L183.98-23.35Q185.43-23.35 186.51-23.1 187.58-22.85 188.83-22.45L188.83-22.45 188.83-18.6Q187.83-19.65 186.66-20.35 185.48-21.05 183.73-21.05L183.73-21.05Q182.68-21.05 181.46-20.63 180.23-20.2 179.08-19.15 177.93-18.1 177.21-16.2 176.48-14.3 176.48-11.3L176.48-11.3Q176.48-8.1 177.43-6.23 178.38-4.35 179.68-3.53 180.98-2.7 182.08-2.7L182.08-2.7Q183.58-2.7 184.96-3.63 186.33-4.55 187.23-6.65 188.13-8.75 188.13-12.25L188.13-12.25 189.58-6.95Q188.93-5.35 188.46-4.5 187.98-3.65 187.73-3.25L187.73-3.25Q187.28-2.5 186.31-1.65 185.33-0.8 183.96-0.18 182.58 0.45 180.88 0.45L180.88 0.45Q177.98 0.45 175.88-0.73 173.78-1.9 172.66-4.35 171.53-6.8 171.53-10.65L171.53-10.65Q171.53-14.15 173.08-17.03 174.63-19.9 177.43-21.63 180.23-23.35 183.98-23.35ZM189.18-6.8L192.63-6.8Q192.63-5.65 192.83-4.88 193.03-4.1 193.71-3.75 194.38-3.4 195.73-3.4L195.73-3.4Q195.73-2.9 195.68-2.27 195.63-1.65 195.43-1.1L195.43-1.1Q194.18-1.05 192.53-0.63 190.88-0.2 189.73 0.45L189.73 0.45Q189.23 0.2 188.86-0.28 188.48-0.75 188.48-2.45L188.48-2.45Q188.48-3.45 188.66-4.23 188.83-5 189.18-6.8L189.18-6.8ZM188.13-28.75L192.63-28.75 192.63-6.35 188.13-6.35 188.13-28.75ZM191.53-35.85L191.53-35.85Q191.98-35.7 192.31-35.25 192.63-34.8 192.63-33.85L192.63-33.85 192.63-26.9 188.13-26.9 188.13-28.75Q188.13-29.95 187.91-30.73 187.68-31.5 186.88-31.9 186.08-32.3 184.38-32.3L184.38-32.3Q184.38-32.85 184.48-33.3 184.58-33.75 184.83-34.15L184.83-34.15Q185.58-34.15 186.93-34.4 188.28-34.65 189.61-35.05 190.93-35.45 191.53-35.85ZM215.48-21.6L215.48-21.6Q215.43-20.4 215.4-19.05 215.38-17.7 215.58-16.4L215.58-16.4Q215.08-16.1 214.43-15.95 213.78-15.8 213.08-15.8L213.08-15.8Q212.98-17.2 212.25-18.45 211.53-19.7 210.33-20.5 209.13-21.3 207.48-21.3L207.48-21.3Q205.93-21.3 205-20.55 204.08-19.8 204.08-18.55L204.08-18.55Q204.08-17.7 204.45-17.05 204.83-16.4 206.1-15.68 207.38-14.95 210.03-13.9L210.03-13.9Q212.73-12.9 214.28-11.9 215.83-10.9 216.48-9.65 217.13-8.4 217.13-6.6L217.13-6.6Q217.13-4.5 215.93-2.9 214.73-1.3 212.65-0.43 210.58 0.45 207.98 0.45L207.98 0.45Q204.98 0.45 203.2-0.03 201.43-0.5 199.73-1.4L199.73-1.4Q199.83-2.2 199.85-3.35 199.88-4.5 199.88-5.65 199.88-6.8 199.78-7.6L199.78-7.6Q200.18-7.9 200.9-8.03 201.63-8.15 202.38-8.15L202.38-8.15Q202.78-5 204.33-3.45 205.88-1.9 208.48-1.9L208.48-1.9Q210.53-1.9 211.65-2.8 212.78-3.7 212.78-5.1L212.78-5.1Q212.78-6 212.35-6.65 211.93-7.3 210.78-7.95 209.63-8.6 207.38-9.5L207.38-9.5Q204.68-10.6 203.05-11.55 201.43-12.5 200.7-13.8 199.98-15.1 199.98-17.1L199.98-17.1Q199.98-18.7 200.78-19.88 201.58-21.05 202.85-21.83 204.13-22.6 205.58-22.98 207.03-23.35 208.28-23.35L208.28-23.35Q210.53-23.35 212.23-22.9 213.93-22.45 215.48-21.6Z" opacity="1" transform="matrix(1,0,0,1,0,0)" fill="#000000" class="wordmark-text-0" data-fill-palette-color="primary" id="text-0"></path></svg></g></svg></g><g transform="matrix(1,0,0,1,0,81.9146452646019)"><svg viewBox="0 0 395.52 40.95480437572121" height="40.95480437572121" width="395.52"><g transform="matrix(1,0,0,1,0,0)"><svg width="395.52" viewBox="1.5 -38.1 487.7 50.5" height="40.95480437572121" data-palette-color="#32fd6b"><path d="M4.4-2.4L4.4-2.4 4.4-33Q4.4-33.95 3.78-34.38 3.15-34.8 1.5-34.8L1.5-34.8 1.5-36.2Q2.6-36.2 4.63-36.75 6.65-37.3 7.6-37.9L7.6-37.9 8.5-38.1 8.5-17.4Q9.5-20.3 11.85-22.15 14.2-24 17.68-24 21.15-24 23.18-21.73 25.2-19.45 25.2-15.6L25.2-15.6Q25.2-8.55 21.5-3.93 17.8 0.7 12.4 0.7L12.4 0.7Q10.5 0.7 8.03-0.45 5.55-1.6 4.4-2.4ZM8.5-13.4L8.5-13.4 8.5-4.5Q8.95-3.6 9.9-2.85L9.9-2.85Q11.7-1.5 13.3-1.5L13.3-1.5Q16.9-1.5 19.35-4.98 21.8-8.45 21.8-13.7L21.8-13.7Q21.8-16.7 20.03-18.65 18.25-20.6 15.53-20.6 12.8-20.6 10.65-17.57 8.5-14.55 8.5-13.4ZM62.38 11.6L62.38 11.6 63.18 7.7 63.88 7.7Q63.98 8.25 64.78 8.93 65.58 9.6 66.48 9.6L66.48 9.6Q69.58 9.6 70.88 7.5 72.18 5.4 73.58-0.1L73.58-0.1 65.98-19.8Q65.53-20.85 65.03-21.33 64.53-21.8 63.48-21.8L63.48-21.8 62.78-21.8 62.78-23.3 72.58-23.3 72.58-21.8 72.28-21.8Q70.18-21.8 70.18-20.6L70.18-20.6Q70.18-20.35 70.68-19L70.68-19 75.78-5.4 81.38-19.5Q81.98-20.7 81.98-21L81.98-21Q81.98-21.45 81.41-21.63 80.83-21.8 79.08-21.8L79.08-21.8 78.68-21.8 78.68-23.3 87.98-23.3 87.98-21.8 87.48-21.8Q85.78-21.8 85.13-21.3 84.48-20.8 83.98-19.4L83.98-19.4 73.88 5.9Q72.53 9.2 70.66 10.8 68.78 12.4 65.58 12.4L65.58 12.4Q64.38 12.4 62.38 11.6ZM185.94 0.7L185.94 0.7Q181.54 0.7 178.59-2.6 175.64-5.9 175.64-10.3L175.64-10.3Q175.64-15.9 179.87-19.95 184.09-24 188.79-24 193.49-24 196.37-20.68 199.24-17.35 199.24-13L199.24-13Q199.24-7.55 195.22-3.43 191.19 0.7 185.94 0.7ZM179.14-13Q179.14-8.35 181.97-5.28 184.79-2.2 188.32-2.2 191.84-2.2 193.84-4.85 195.84-7.5 195.84-10.3L195.84-10.3Q195.84-14.55 193.22-17.73 190.59-20.9 186.84-20.9 183.09-20.9 181.12-18.38 179.14-15.85 179.14-13L179.14-13ZM262.78-1.6L262.78 0 255.58 0 255.58-5.8Q254.53-2.95 252.18-1.13 249.83 0.7 246.35 0.7 242.88 0.7 240.88-1.55 238.88-3.8 238.88-7.6L238.88-7.6Q238.88-14.65 242.55-19.33 246.23-24 251.58-24L251.58-24Q252.78-24 255.58-23L255.58-23 255.58-33Q255.58-33.95 254.93-34.38 254.28-34.8 252.68-34.8L252.68-34.8 252.68-36.2Q253.73-36.2 255.78-36.75 257.83-37.3 258.68-37.9L258.68-37.9 259.58-38.1 259.58-3.4Q259.58-2.45 259.95-2.02 260.33-1.6 261.78-1.6L261.78-1.6 262.78-1.6ZM255.58-9.9L255.58-9.9 255.58-18.8Q255.38-19.1 254.98-19.6 254.58-20.1 253.3-20.9 252.03-21.7 250.68-21.7L250.68-21.7Q247.03-21.7 244.6-18.25 242.18-14.8 242.18-9.5L242.18-9.5Q242.18-6.55 243.95-4.63 245.73-2.7 248.5-2.7 251.28-2.7 253.43-5.73 255.58-8.75 255.58-9.9ZM308.43-34.8Q309.56-34.8 310.18-34.05 310.81-33.3 310.81-32.13 310.81-30.95 309.86-30.18 308.91-29.4 307.78-29.4 306.66-29.4 306.03-30.15 305.41-30.9 305.41-32.02 305.41-33.15 306.36-33.98 307.31-34.8 308.43-34.8ZM313.91-1.4L313.91 0 303.81 0 303.81-1.4 304.61-1.4Q305.96-1.4 306.33-1.85 306.71-2.3 306.71-3.3L306.71-3.3 306.71-18.3Q306.71-19.25 306.08-19.68 305.46-20.1 303.81-20.1L303.81-20.1 303.81-21.5Q304.81-21.5 306.83-22.23 308.86-22.95 309.91-23.6L309.91-23.6 310.81-23.8 310.81-3.6Q310.81-2.8 310.88-2.45 310.96-2.1 311.46-1.75 311.96-1.4 313.01-1.4L313.01-1.4 313.91-1.4ZM373.84-6.1L373.84-6.1 374.74-5.2Q371.54 0.7 363.24 0.7L363.24 0.7Q359.39 0.7 356.66-2.7 353.94-6.1 353.94-10.3L353.94-10.3Q353.94-15.95 357.61-19.98 361.29-24 366.54-24L366.54-24Q369.04-24 370.94-22.55L370.94-22.55Q374.34-19.9 374.34-15.7L374.34-15.7Q374.34-15.1 374.11-14.25 373.89-13.4 373.74-13.4L373.74-13.4 357.64-12.9Q357.64-9 360.09-5.7 362.54-2.4 366.04-2.4L366.04-2.4Q368.54-2.4 370.66-3.43 372.79-4.45 373.84-6.1ZM358.14-14.9L358.14-14.9 369.84-15.4Q369.94-15.4 369.94-16.3L369.94-16.3Q369.94-18.9 368.41-20 366.89-21.1 364.21-21.1 361.54-21.1 359.84-19.45 358.14-17.8 358.14-14.9ZM425.37-1.4L425.37 0 415.37 0 415.37-1.4 416.07-1.4Q417.17-1.4 417.67-1.88 418.17-2.35 418.17-3.5L418.17-3.5 418.17-33Q418.17-33.95 417.52-34.38 416.87-34.8 415.27-34.8L415.27-34.8 415.27-36.2Q416.27-36.2 418.35-36.75 420.42-37.3 421.37-37.9L421.37-37.9 422.27-38.1 422.27-3.6Q422.27-2.8 422.35-2.45 422.42-2.1 422.92-1.75 423.42-1.4 424.47-1.4L424.47-1.4 425.37-1.4ZM475.9 0.7L475.9 0.7Q471.5 0.7 468.55-2.6 465.6-5.9 465.6-10.3L465.6-10.3Q465.6-15.9 469.83-19.95 474.05-24 478.75-24 483.45-24 486.33-20.68 489.2-17.35 489.2-13L489.2-13Q489.2-7.55 485.18-3.43 481.15 0.7 475.9 0.7ZM469.1-13Q469.1-8.35 471.93-5.28 474.75-2.2 478.28-2.2 481.8-2.2 483.8-4.85 485.8-7.5 485.8-10.3L485.8-10.3Q485.8-14.55 483.18-17.73 480.55-20.9 476.8-20.9 473.05-20.9 471.08-18.38 469.1-15.85 469.1-13L469.1-13Z" opacity="1" transform="matrix(1,0,0,1,0,0)" fill="#000000" class="slogan-text-1" data-fill-palette-color="secondary" id="text-1"></path></svg></g></svg></g></svg></g></svg></g><g transform="matrix(1,0,0,1,84.68182969485765,0)"><svg viewBox="0 0 226.15634061028467 226.15634061028467" height="226.15634061028467" width="226.15634061028467"><g><svg></svg></g><g id="icon-0"><svg viewBox="0 0 226.15634061028467 226.15634061028467" height="226.15634061028467" width="226.15634061028467"><g><path d="M0 113.078c0-62.451 50.627-113.078 113.078-113.078 62.451 0 113.078 50.627 113.078 113.078 0 62.451-50.627 113.078-113.078 113.078-62.451 0-113.078-50.627-113.078-113.078zM113.078 220.18c59.151 0 107.102-47.951 107.102-107.102 0-59.151-47.951-107.102-107.102-107.102-59.151 0-107.102 47.951-107.102 107.102 0 59.151 47.951 107.102 107.102 107.102z" data-fill-palette-color="accent" fill="#000000" stroke="transparent"></path><ellipse rx="111.94738860209091" ry="111.94738860209091" cx="113.07817030514234" cy="113.07817030514234" fill="#000000" stroke="transparent" stroke-width="0" fill-opacity="1" data-fill-palette-color="accent"></ellipse></g><g transform="matrix(1,0,0,1,48.718534041458256,55.66116774236545)"><svg viewBox="0 0 128.71927252736816 114.83400512555377" height="114.83400512555377" width="128.71927252736816"><g><svg xmlns="http://www.w3.org/2000/svg" xmlns:xlink="http://www.w3.org/1999/xlink" version="1.1" x="0" y="0" viewBox="8.386999999999999 13.004999999999999 84.192 75.11" enable-background="new 0 0 100 100" xml:space="preserve" height="114.83400512555377" width="128.71927252736816" class="icon-cg-0" data-fill-palette-color="quaternary" id="cg-0"><g fill="#004051" data-fill-palette-color="quaternary"><path d="M49.569 22.967c-9.975-5.691-20.677-9.125-31.045-9.962v58.351c10.367 0.814 21.05 4.154 31.045 9.699V22.967z" fill="#ffffff" data-fill-palette-color="quaternary"></path><path d="M82.444 13.005c-10.368 0.838-21.071 4.271-31.045 9.962v58.087c9.993-5.545 20.679-8.885 31.045-9.699V13.005z" fill="#ffffff" data-fill-palette-color="quaternary"></path><path d="M49.229 84.073c0.814 0.278 1.671 0.29 2.485 0.012 11.657-5.043 23.865-7.313 35.798-6.79V19.524c-1.074-0.048-2.155-0.059-3.24-0.055v53.594l-0.852 0.056c-10.672 0.697-21.732 4.177-32.021 10.048-0.594 0.203-1.237 0.203-1.83 0-10.29-5.871-21.349-9.351-32.021-10.048l-0.854-0.056V19.469c-1.084-0.004-2.166 0.006-3.239 0.055v57.771C25.387 76.771 37.569 79.03 49.229 84.073z" fill="#ffffff" data-fill-palette-color="quaternary"></path><path d="M92.579 26.009c-1.07-0.149-2.157-0.228-3.237-0.335v53.55l-0.968-0.056c-12.195-0.699-25.06 1.777-36.975 7.065l-0.916 0.381-0.915-0.381c-11.917-5.288-24.781-7.765-36.976-7.065l-0.967 0.056v-53.55c-1.081 0.108-2.168 0.187-3.238 0.335v58.707c0.594 0.307 1.044 0.748 1.044 0.748 12.951-1.75 26.393-1.536 39.18 2.651 0.588-0.058 1.212-0.095 1.873-0.095 0.661 0 1.285 0.037 1.872 0.095 12.785-4.188 26.229-4.401 39.179-2.651 0 0 0.474-0.462 1.044-0.748V26.009z" fill="#ffffff" data-fill-palette-color="quaternary"></path></g></svg></g></svg></g></svg></g></svg></g><g></g></svg></g><defs></defs></svg><rect width="257.08288380530377" height="247.2" fill="none" stroke="none" visibility="hidden"></rect></g></svg></g></svg>
